<?xml version="1.0" encoding="iso-8859-1"?>
<!-- Uploaded to: SVG Repo, www.svgrepo.com, Generator: SVG Repo Mixer Tools -->
<svg height="800px" width="800px" version="1.1" id="Layer_1" xmlns="http://www.w3.org/2000/svg" xmlns:xlink="http://www.w3.org/1999/xlink" 
	 viewBox="0 0 512 512" xml:space="preserve">
<path style="fill:#56545A;" d="M512,104.931l-92.326-12.599l-12.633,92.334l34.629-26.307c15.775,29.965,24.092,63.481,24.092,97.64
	c0,115.662-94.098,209.76-209.76,209.76v43.399c139.592,0,253.159-113.567,253.159-253.159c0-43.636-11.247-86.421-32.539-124.192
	L512,104.931z"/>
<path style="fill:#88888F;" d="M256,46.241V2.842C116.408,2.842,2.841,116.409,2.841,256.001c0,43.634,11.247,86.421,32.539,124.191
	L0,407.069l92.326,12.599l12.633-92.332L70.332,353.64c-15.775-29.967-24.093-63.479-24.093-97.638
	C46.24,140.339,140.338,46.241,256,46.241z"/>
</svg>