<?xml version="1.0" encoding="iso-8859-1"?>
<!-- Uploaded to: SVG Repo, www.svgrepo.com, Generator: SVG Repo Mixer Tools -->
<svg height="800px" width="800px" version="1.1" id="Layer_1" xmlns="http://www.w3.org/2000/svg" xmlns:xlink="http://www.w3.org/1999/xlink" 
	 viewBox="0 0 512 512" xml:space="preserve">
<path style="fill:#5286FA;" d="M307.567,42.672c-7.811-4.179-17.287-3.721-24.656,1.193l-138.064,92.04H24.019
	C10.754,135.905,0,146.659,0,159.924V256v96.076c0,13.265,10.754,24.019,24.019,24.019h120.828l138.064,92.04
	c4.019,2.681,8.664,4.035,13.324,4.035c3.886,0,7.781-0.942,11.332-2.842c7.809-4.179,12.685-12.319,12.685-21.177V256V63.849
	C320.252,54.99,315.376,46.851,307.567,42.672z"/>
<path style="fill:#1A6FB0;" d="M504.964,199.387c-9.379-9.38-24.587-9.38-33.968,0l-22.647,22.645l-22.645-22.645
	c-9.379-9.38-24.587-9.38-33.968,0s-9.38,24.587,0,33.968L414.382,256l-22.645,22.645c-9.38,9.38-9.38,24.589,0,33.968
	c4.69,4.69,10.837,7.036,16.985,7.036c6.147,0,12.294-2.344,16.983-7.036l22.645-22.645l22.647,22.645
	c4.69,4.69,10.837,7.036,16.983,7.036c6.147,0,12.294-2.344,16.983-7.036c9.38-9.379,9.38-24.587,0-33.968L482.316,256
	l22.647-22.645C514.346,223.975,514.346,208.766,504.964,199.387z"/>
<path style="fill:#3D6DEB;" d="M0,352.076c0,13.265,10.754,24.019,24.019,24.019h120.828l138.064,92.04
	c4.019,2.681,8.664,4.035,13.324,4.035c3.886,0,7.781-0.942,11.332-2.842c7.809-4.179,12.685-12.319,12.685-21.177V256H0V352.076z"
	/>
</svg>